<svg id="Слой_1" data-name="Слой 1" xmlns="http://www.w3.org/2000/svg" viewBox="0 0 1232.1 143"><defs><style>.cls-1{fill:#00a3de;}.cls-2{fill:#50a84c;}</style></defs><title>Векторный смарт-объект</title><rect class="cls-1" width="39" height="143"/><path class="cls-1" d="M192,64.6c0,8.8.72,20.4,1.64,35.4h-0.59L140.66,0H90V143h34V78.58c0-8.4-.31-20.58-1.56-36.58h0.89l52.59,101H227V0H192V64.6Z"/><polygon class="cls-1" points="268 31 303 31 303 143 342 143 342 31 377 31 377 0 268 0 268 31"/><polygon class="cls-1" points="418 143 503 143 503 112 457 112 457 85 500 85 500 53 457 53 457 31 503 31 503 0 418 0 418 143"/><path class="cls-1" d="M654.28,42.3c0-28.36-19.57-42.3-58.7-42.3H549V143h38V91h10.16l30.53,52h44.12l-42-62.37C646.14,71.51,654.28,59,654.28,42.3ZM594.6,62H587V29h8c13.33,0,20,5,20,14.92C615,55.94,608.19,62,594.6,62Z"/><polygon class="cls-1" points="705 143 743 143 743 89 787 89 787 58 743 58 743 31 790 31 790 0 705 0 705 143"/><polygon class="cls-1" points="873 0 834 0 834 143 928 143 928 112 873 112 873 0"/><polygon class="cls-1" points="972 143 1057 143 1057 112 1011 112 1011 85 1054 85 1054 53 1011 53 1011 31 1057 31 1057 0 972 0 972 143"/><polygon class="cls-2" points="1133.22 0 1132.9 0 1090.09 0 1134.99 69.83 1087.23 143 1131.1 143 1131.21 142.93 1175.15 71.22 1133.22 0"/><polygon class="cls-1" points="1184.63 70.36 1228.65 0 1184.23 0 1164.15 35.55 1184.63 70.36"/><polygon class="cls-1" points="1232.1 143 1184.19 74.5 1164.45 106.7 1187.09 143 1232.1 143"/></svg>